<svg width="161" height="43" viewBox="0 0 161 43" fill="none" xmlns="http://www.w3.org/2000/svg">
<g filter="url(#filter0_i_620_2)">
<path d="M12.096 4.664L6.048 5C5.248 5.032 4.464 5.112 3.696 5.24C2.96 5.336 2.416 5.4 2.064 5.432H2.016C1.6 5.432 1.232 5.144 0.912 4.568C0.592 3.992 0.432 3.464 0.432 2.984C0.432 2.408 0.64 2.12 1.056 2.12C1.312 2.12 1.76 2.136 2.4 2.168C3.04 2.2 3.728 2.216 4.464 2.216C4.72 2.216 4.976 2.216 5.232 2.216C5.52 2.184 5.776 2.168 6 2.168L21.456 1.304C22.192 1.24 22.944 1.176 23.712 1.112C24.48 1.048 25.056 0.983999 25.44 0.919998H25.584C25.968 0.919998 26.304 1.208 26.592 1.784C26.88 2.36 27.024 2.888 27.024 3.368C27.024 3.944 26.832 4.232 26.448 4.232C26.128 4.232 25.6 4.216 24.864 4.184C24.128 4.12 23.376 4.088 22.608 4.088C22.416 4.088 22.224 4.104 22.032 4.136C21.84 4.136 21.664 4.136 21.504 4.136L15.456 4.472L15.504 29.912C15.504 30.904 15.52 31.864 15.552 32.792C15.616 33.72 15.648 34.456 15.648 35C15.648 35.192 15.536 35.32 15.312 35.384C15.12 35.48 14.864 35.528 14.544 35.528C14.032 35.528 13.472 35.4 12.864 35.144C12.256 34.888 11.952 34.552 11.952 34.136C11.952 33.752 11.968 33.16 12 32.36C12.032 31.528 12.048 30.696 12.048 29.864L12.096 4.664ZM31.2776 17.384C31.2776 17.064 31.2616 16.568 31.2296 15.896C31.1976 15.224 31.1656 14.536 31.1336 13.832C31.1336 13.128 31.1336 12.6 31.1336 12.248C31.1336 11.928 31.4536 11.768 32.0936 11.768C32.6056 11.768 33.1496 11.896 33.7256 12.152C34.3336 12.376 34.6376 12.696 34.6376 13.112C34.6376 13.432 34.6056 13.784 34.5416 14.168C34.5096 14.552 34.4936 15.016 34.4936 15.56C35.1336 14.504 36.0456 13.592 37.2296 12.824C38.4136 12.056 39.8376 11.672 41.5016 11.672C42.4616 11.672 43.3576 11.832 44.1896 12.152C45.0216 12.472 45.6936 12.856 46.2056 13.304C46.7496 13.752 47.0216 14.168 47.0216 14.552C47.0216 15.064 46.8296 15.608 46.4456 16.184C46.0936 16.76 45.7096 17.048 45.2936 17.048C45.0376 17.048 44.8136 16.888 44.6216 16.568C44.3016 15.96 43.7896 15.512 43.0856 15.224C42.4136 14.936 41.8376 14.792 41.3576 14.792C40.0136 14.792 38.7656 15.208 37.6136 16.04C36.4936 16.872 35.6616 18.152 35.1176 19.88C34.8936 20.584 34.7336 21.368 34.6376 22.232C34.5416 23.096 34.4776 24.136 34.4456 25.352C34.4456 26.568 34.4456 28.088 34.4456 29.912C34.4456 30.904 34.4776 31.864 34.5416 32.792C34.6376 33.72 34.6856 34.456 34.6856 35C34.6856 35.32 34.3656 35.48 33.7256 35.48C33.2136 35.48 32.6536 35.352 32.0456 35.096C31.4696 34.872 31.1816 34.552 31.1816 34.136C31.1816 33.88 31.1816 33.464 31.1816 32.888C31.2136 32.28 31.2296 31.688 31.2296 31.112C31.2616 30.536 31.2776 30.136 31.2776 29.912V17.384ZM70.8626 13.064C70.7666 13.768 70.6706 14.712 70.5746 15.896C70.5106 17.048 70.4466 18.28 70.3826 19.592C70.3506 20.872 70.3186 22.072 70.2866 23.192C70.2546 24.312 70.2386 25.16 70.2386 25.736C70.2386 26.184 70.2546 26.856 70.2866 27.752C70.3506 28.616 70.4946 29.544 70.7186 30.536C70.9746 31.528 71.3746 32.456 71.9186 33.32C71.9826 33.448 72.0146 33.544 72.0146 33.608C72.0146 33.96 71.7906 34.392 71.3426 34.904C70.9266 35.384 70.4466 35.624 69.9026 35.624C69.4226 35.624 68.9906 35.288 68.6066 34.616C68.2546 33.912 67.9666 33.08 67.7426 32.12C67.5506 31.128 67.4066 30.2 67.3106 29.336C66.1266 31.576 64.6866 33.224 62.9906 34.28C61.3266 35.336 59.5986 35.864 57.8066 35.864C55.4706 35.864 53.5986 35.08 52.1906 33.512C50.7826 31.912 50.0786 29.608 50.0786 26.6C50.0786 24.552 50.4146 22.632 51.0866 20.84C51.7586 19.048 52.6546 17.464 53.7746 16.088C54.9266 14.712 56.2066 13.64 57.6146 12.872C59.0226 12.072 60.4626 11.672 61.9346 11.672C63.0546 11.672 64.0786 11.928 65.0066 12.44C65.9346 12.92 66.6706 13.72 67.2146 14.84V12.2C67.2146 11.88 67.5506 11.72 68.2226 11.72C68.7666 11.72 69.3426 11.832 69.9506 12.056C70.5586 12.28 70.8626 12.584 70.8626 12.968V13.064ZM67.1666 16.76C66.8786 17.048 66.6066 17.192 66.3506 17.192C66.2226 17.192 66.1106 17.128 66.0146 17C65.4706 16.072 64.8306 15.416 64.0946 15.032C63.3906 14.648 62.6706 14.456 61.9346 14.456C60.9426 14.456 59.9346 14.76 58.9106 15.368C57.9186 15.944 56.9906 16.776 56.1266 17.864C55.2946 18.92 54.6226 20.184 54.1106 21.656C53.5986 23.096 53.3426 24.664 53.3426 26.36C53.3426 28.792 53.7586 30.504 54.5906 31.496C55.4226 32.488 56.4786 32.984 57.7586 32.984C59.2946 32.984 60.7506 32.488 62.1266 31.496C63.5026 30.472 64.6386 29.064 65.5346 27.272C66.4626 25.48 66.9746 23.4 67.0706 21.032C67.1026 20.584 67.1186 19.96 67.1186 19.16C67.1186 18.36 67.1346 17.56 67.1666 16.76ZM98.328 28.136C98.328 28.328 98.104 28.84 97.656 29.672C97.208 30.472 96.52 31.352 95.592 32.312C94.664 33.272 93.48 34.104 92.04 34.808C90.632 35.512 88.952 35.864 87 35.864C85.336 35.864 83.784 35.48 82.344 34.712C80.936 33.912 79.8 32.76 78.936 31.256C78.104 29.72 77.688 27.864 77.688 25.688C77.688 23.768 78.04 21.96 78.744 20.264C79.48 18.568 80.44 17.08 81.624 15.8C82.808 14.52 84.136 13.512 85.608 12.776C87.08 12.04 88.552 11.672 90.024 11.672C91.336 11.672 92.44 11.864 93.336 12.248C94.232 12.6 94.936 13.032 95.448 13.544C95.992 14.056 96.376 14.536 96.6 14.984C96.856 15.4 96.984 15.656 96.984 15.752C96.984 16.264 96.744 16.76 96.264 17.24C95.784 17.72 95.352 17.96 94.968 17.96C94.776 17.96 94.632 17.88 94.536 17.72C94.312 17.272 94.088 16.84 93.864 16.424C93.64 16.008 93.352 15.688 93 15.464C92.072 14.824 91.112 14.504 90.12 14.504C89.128 14.504 88.088 14.792 87 15.368C85.944 15.944 84.952 16.744 84.024 17.768C83.128 18.76 82.392 19.912 81.816 21.224C81.24 22.536 80.952 23.944 80.952 25.448C80.952 27.112 81.256 28.52 81.864 29.672C82.504 30.792 83.288 31.64 84.216 32.216C85.144 32.792 86.072 33.08 87 33.08C88.376 33.08 89.656 32.84 90.84 32.36C92.024 31.88 93.112 31.272 94.104 30.536C95.128 29.768 96.008 29.016 96.744 28.28C97.224 27.8 97.608 27.56 97.896 27.56C98.184 27.56 98.328 27.752 98.328 28.136ZM104.869 6.68C104.869 6.36 104.853 5.864 104.821 5.192C104.789 4.52 104.757 3.832 104.725 3.128C104.725 2.424 104.725 1.896 104.725 1.544C104.725 1.224 105.045 1.064 105.685 1.064C106.197 1.064 106.741 1.192 107.317 1.448C107.925 1.672 108.229 1.992 108.229 2.408C108.229 2.664 108.213 3.064 108.181 3.608C108.149 4.12 108.117 4.664 108.085 5.24C108.053 5.816 108.037 6.296 108.037 6.68V19.928L117.061 13.688C117.477 13.4 117.845 13.096 118.165 12.776C118.517 12.456 118.789 12.2 118.981 12.008C119.109 11.848 119.365 11.768 119.749 11.768C120.133 11.768 120.549 11.848 120.997 12.008C121.445 12.168 121.829 12.376 122.149 12.632C122.469 12.856 122.629 13.08 122.629 13.304C122.629 13.432 122.549 13.544 122.389 13.64C121.717 14.088 121.061 14.504 120.421 14.888C119.781 15.24 119.253 15.56 118.837 15.848L111.541 20.936C112.469 21.832 113.541 22.936 114.757 24.248C116.005 25.56 117.269 26.872 118.549 28.184C119.829 29.496 120.965 30.664 121.957 31.688C122.309 32.008 122.725 32.344 123.205 32.696C123.685 33.048 124.181 33.336 124.693 33.56C124.853 33.624 124.933 33.736 124.933 33.896C124.933 34.12 124.773 34.376 124.453 34.664C124.165 34.92 123.813 35.144 123.397 35.336C122.981 35.56 122.597 35.672 122.245 35.672C122.021 35.672 121.861 35.624 121.765 35.528C121.349 35.208 120.917 34.856 120.469 34.472C120.021 34.088 119.621 33.72 119.269 33.368C118.629 32.696 117.877 31.896 117.013 30.968C116.149 30.04 115.253 29.064 114.325 28.04C113.397 27.016 112.485 26.04 111.589 25.112C110.693 24.152 109.893 23.32 109.189 22.616L108.037 23.336V29.912C108.037 30.104 108.053 30.536 108.085 31.208C108.149 31.88 108.197 32.584 108.229 33.32C108.261 34.056 108.277 34.616 108.277 35C108.277 35.32 107.957 35.48 107.317 35.48C106.805 35.48 106.245 35.352 105.637 35.096C105.061 34.872 104.773 34.552 104.773 34.136C104.773 33.88 104.773 33.464 104.773 32.888C104.805 32.28 104.821 31.688 104.821 31.112C104.853 30.536 104.869 30.136 104.869 29.912V6.68ZM133.562 4.472C133.562 5.08 133.354 5.608 132.938 6.056C132.522 6.472 131.946 6.68 131.21 6.68C130.602 6.68 130.042 6.376 129.53 5.768C129.05 5.128 128.81 4.472 128.81 3.8C128.81 3.16 129.002 2.616 129.386 2.168C129.802 1.72 130.41 1.496 131.21 1.496C131.786 1.496 132.314 1.816 132.794 2.456C133.306 3.096 133.562 3.768 133.562 4.472ZM129.578 17.336C129.578 17.016 129.562 16.52 129.53 15.848C129.498 15.176 129.466 14.488 129.434 13.784C129.434 13.08 129.434 12.552 129.434 12.2C129.434 11.912 129.738 11.768 130.346 11.768C130.89 11.768 131.466 11.896 132.074 12.152C132.682 12.376 132.986 12.68 132.986 13.064C132.986 13.32 132.97 13.72 132.938 14.264C132.938 14.776 132.922 15.32 132.89 15.896C132.89 16.472 132.89 16.952 132.89 17.336V29.96C132.89 30.152 132.906 30.584 132.938 31.256C132.97 31.928 132.986 32.632 132.986 33.368C133.018 34.104 133.034 34.664 133.034 35.048C133.034 35.336 132.73 35.48 132.122 35.48C131.61 35.48 131.034 35.352 130.394 35.096C129.786 34.872 129.482 34.568 129.482 34.184C129.482 33.928 129.482 33.512 129.482 32.936C129.514 32.328 129.53 31.736 129.53 31.16C129.562 30.584 129.578 30.184 129.578 29.96V17.336ZM142.619 42.872C142.011 42.872 141.323 42.808 140.555 42.68C139.787 42.552 139.035 42.184 138.299 41.576C138.139 41.416 138.059 41.208 138.059 40.952C138.059 40.504 138.219 39.992 138.539 39.416C138.859 38.872 139.227 38.6 139.643 38.6C139.867 38.6 140.075 38.712 140.267 38.936C140.683 39.352 141.131 39.608 141.611 39.704C142.091 39.8 142.539 39.848 142.955 39.848C143.467 39.848 143.963 39.656 144.443 39.272C144.955 38.888 145.435 38.2 145.883 37.208L147.995 32.792L140.987 16.904C140.763 16.424 140.443 15.784 140.027 14.984C139.643 14.184 139.307 13.528 139.019 13.016C138.955 12.888 138.923 12.792 138.923 12.728C138.923 12.472 139.115 12.28 139.499 12.152C139.915 12.024 140.363 11.96 140.843 11.96C141.291 11.96 141.691 12.008 142.043 12.104C142.427 12.2 142.651 12.36 142.715 12.584C142.939 13.16 143.163 13.752 143.387 14.36C143.643 14.936 143.899 15.528 144.155 16.136L149.723 29.048L155.627 16.616C155.947 15.976 156.251 15.256 156.539 14.456C156.859 13.656 157.131 12.888 157.355 12.152C157.451 11.864 157.723 11.72 158.171 11.72C158.651 11.72 159.163 11.896 159.707 12.248C160.251 12.6 160.523 13.032 160.523 13.544C160.523 13.736 160.475 13.928 160.379 14.12C160.123 14.6 159.819 15.176 159.467 15.848C159.115 16.488 158.795 17.096 158.507 17.672L148.379 38.936C147.739 40.28 147.003 41.272 146.171 41.912C145.371 42.552 144.347 42.872 143.099 42.872H142.619Z" fill="#465A5B"/>
</g>
<defs>
<filter id="filter0_i_620_2" x="0.432129" y="0.919922" width="160.091" height="45.9521" filterUnits="userSpaceOnUse" color-interpolation-filters="sRGB">
<feFlood flood-opacity="0" result="BackgroundImageFix"/>
<feBlend mode="normal" in="SourceGraphic" in2="BackgroundImageFix" result="shape"/>
<feColorMatrix in="SourceAlpha" type="matrix" values="0 0 0 0 0 0 0 0 0 0 0 0 0 0 0 0 0 0 127 0" result="hardAlpha"/>
<feOffset dy="4"/>
<feGaussianBlur stdDeviation="2"/>
<feComposite in2="hardAlpha" operator="arithmetic" k2="-1" k3="1"/>
<feColorMatrix type="matrix" values="0 0 0 0 0 0 0 0 0 0 0 0 0 0 0 0 0 0 0.25 0"/>
<feBlend mode="normal" in2="shape" result="effect1_innerShadow_620_2"/>
</filter>
</defs>
</svg>
